<mxfile host="Electron" modified="2024-04-27T08:38:06.482Z" agent="Mozilla/5.0 (Windows NT 10.0; Win64; x64) AppleWebKit/537.36 (KHTML, like Gecko) draw.io/22.1.18 Chrome/120.0.6099.199 Electron/28.1.2 Safari/537.36" etag="V2ppqjtTtAIKmOgS6aVF" version="22.1.18" type="device">
  <diagram id="C5RBs43oDa-KdzZeNtuy" name="Page-1">
    <mxGraphModel dx="1232" dy="1187" grid="1" gridSize="10" guides="1" tooltips="1" connect="1" arrows="1" fold="1" page="1" pageScale="1" pageWidth="827" pageHeight="1169" math="0" shadow="0">
      <root>
        <mxCell id="WIyWlLk6GJQsqaUBKTNV-0" />
        <mxCell id="WIyWlLk6GJQsqaUBKTNV-1" parent="WIyWlLk6GJQsqaUBKTNV-0" />
        <mxCell id="WhZk6WtXUjjQEcHUHUVI-3" style="edgeStyle=orthogonalEdgeStyle;rounded=0;orthogonalLoop=1;jettySize=auto;html=1;exitX=0.5;exitY=1;exitDx=0;exitDy=0;entryX=0.5;entryY=0;entryDx=0;entryDy=0;" parent="WIyWlLk6GJQsqaUBKTNV-1" source="WhZk6WtXUjjQEcHUHUVI-1" target="WhZk6WtXUjjQEcHUHUVI-2" edge="1">
          <mxGeometry relative="1" as="geometry" />
        </mxCell>
        <mxCell id="WhZk6WtXUjjQEcHUHUVI-1" value="" style="ellipse;" parent="WIyWlLk6GJQsqaUBKTNV-1" vertex="1">
          <mxGeometry x="390" y="110" width="30" height="30" as="geometry" />
        </mxCell>
        <mxCell id="WhZk6WtXUjjQEcHUHUVI-8" style="edgeStyle=orthogonalEdgeStyle;rounded=0;orthogonalLoop=1;jettySize=auto;html=1;exitX=1;exitY=0.5;exitDx=0;exitDy=0;entryX=0.5;entryY=0;entryDx=0;entryDy=0;" parent="WIyWlLk6GJQsqaUBKTNV-1" source="WhZk6WtXUjjQEcHUHUVI-2" target="WhZk6WtXUjjQEcHUHUVI-7" edge="1">
          <mxGeometry relative="1" as="geometry" />
        </mxCell>
        <mxCell id="WhZk6WtXUjjQEcHUHUVI-10" value="1s" style="edgeLabel;html=1;align=center;verticalAlign=middle;resizable=0;points=[];" parent="WhZk6WtXUjjQEcHUHUVI-8" vertex="1" connectable="0">
          <mxGeometry x="-0.3085" relative="1" as="geometry">
            <mxPoint as="offset" />
          </mxGeometry>
        </mxCell>
        <mxCell id="WhZk6WtXUjjQEcHUHUVI-2" value="Setup" style="rounded=1;whiteSpace=wrap;html=1;absoluteArcSize=1;arcSize=14;strokeWidth=2;" parent="WIyWlLk6GJQsqaUBKTNV-1" vertex="1">
          <mxGeometry x="355" y="190" width="100" height="100" as="geometry" />
        </mxCell>
        <mxCell id="WhZk6WtXUjjQEcHUHUVI-4" value="Running Mode" style="rounded=1;whiteSpace=wrap;html=1;absoluteArcSize=1;arcSize=14;strokeWidth=2;" parent="WIyWlLk6GJQsqaUBKTNV-1" vertex="1">
          <mxGeometry x="355" y="350" width="100" height="100" as="geometry" />
        </mxCell>
        <mxCell id="WhZk6WtXUjjQEcHUHUVI-7" value="" style="shape=collate;html=1;" parent="WIyWlLk6GJQsqaUBKTNV-1" vertex="1">
          <mxGeometry x="580" y="280" width="40" height="40" as="geometry" />
        </mxCell>
        <mxCell id="WhZk6WtXUjjQEcHUHUVI-12" value="" style="shape=actor;whiteSpace=wrap;html=1;" parent="WIyWlLk6GJQsqaUBKTNV-1" vertex="1">
          <mxGeometry x="130" y="170" width="40" height="60" as="geometry" />
        </mxCell>
        <mxCell id="WhZk6WtXUjjQEcHUHUVI-13" value="Button SW2 Down+Up&lt;br&gt;Short(100ms)" style="rounded=1;whiteSpace=wrap;html=1;absoluteArcSize=1;arcSize=14;strokeWidth=2;" parent="WIyWlLk6GJQsqaUBKTNV-1" vertex="1">
          <mxGeometry x="100" y="300" width="100" height="100" as="geometry" />
        </mxCell>
        <mxCell id="WhZk6WtXUjjQEcHUHUVI-14" style="edgeStyle=orthogonalEdgeStyle;rounded=0;orthogonalLoop=1;jettySize=auto;html=1;exitX=0.5;exitY=1;exitDx=0;exitDy=0;entryX=0.501;entryY=-0.029;entryDx=0;entryDy=0;entryPerimeter=0;" parent="WIyWlLk6GJQsqaUBKTNV-1" source="WhZk6WtXUjjQEcHUHUVI-12" target="WhZk6WtXUjjQEcHUHUVI-13" edge="1">
          <mxGeometry relative="1" as="geometry" />
        </mxCell>
        <mxCell id="WhZk6WtXUjjQEcHUHUVI-20" style="edgeStyle=orthogonalEdgeStyle;rounded=0;orthogonalLoop=1;jettySize=auto;html=1;exitX=1;exitY=0.5;exitDx=0;exitDy=0;entryX=0;entryY=0.5;entryDx=0;entryDy=0;" parent="WIyWlLk6GJQsqaUBKTNV-1" source="WhZk6WtXUjjQEcHUHUVI-15" target="WhZk6WtXUjjQEcHUHUVI-19" edge="1">
          <mxGeometry relative="1" as="geometry" />
        </mxCell>
        <mxCell id="WhZk6WtXUjjQEcHUHUVI-15" value="Enter Set Mode" style="rounded=1;whiteSpace=wrap;html=1;absoluteArcSize=1;arcSize=14;strokeWidth=2;" parent="WIyWlLk6GJQsqaUBKTNV-1" vertex="1">
          <mxGeometry x="100" y="610" width="100" height="100" as="geometry" />
        </mxCell>
        <mxCell id="WhZk6WtXUjjQEcHUHUVI-19" value="Set Mode" style="rounded=1;whiteSpace=wrap;html=1;absoluteArcSize=1;arcSize=14;strokeWidth=2;" parent="WIyWlLk6GJQsqaUBKTNV-1" vertex="1">
          <mxGeometry x="355" y="540" width="100" height="100" as="geometry" />
        </mxCell>
        <mxCell id="WhZk6WtXUjjQEcHUHUVI-22" value="" style="edgeStyle=orthogonalEdgeStyle;rounded=0;orthogonalLoop=1;jettySize=auto;html=1;exitX=0.5;exitY=1;exitDx=0;exitDy=0;entryX=1;entryY=0.5;entryDx=0;entryDy=0;" parent="WIyWlLk6GJQsqaUBKTNV-1" source="WhZk6WtXUjjQEcHUHUVI-7" target="WhZk6WtXUjjQEcHUHUVI-21" edge="1">
          <mxGeometry relative="1" as="geometry">
            <mxPoint x="580" y="320" as="sourcePoint" />
            <mxPoint x="455" y="400" as="targetPoint" />
          </mxGeometry>
        </mxCell>
        <mxCell id="WhZk6WtXUjjQEcHUHUVI-23" style="edgeStyle=orthogonalEdgeStyle;rounded=0;orthogonalLoop=1;jettySize=auto;html=1;exitX=0;exitY=0.5;exitDx=0;exitDy=0;entryX=1;entryY=0.5;entryDx=0;entryDy=0;" parent="WIyWlLk6GJQsqaUBKTNV-1" source="WhZk6WtXUjjQEcHUHUVI-21" target="WhZk6WtXUjjQEcHUHUVI-4" edge="1">
          <mxGeometry relative="1" as="geometry" />
        </mxCell>
        <mxCell id="WhZk6WtXUjjQEcHUHUVI-24" value="NO" style="edgeLabel;html=1;align=center;verticalAlign=middle;resizable=0;points=[];" parent="WhZk6WtXUjjQEcHUHUVI-23" vertex="1" connectable="0">
          <mxGeometry x="0.1075" y="-2" relative="1" as="geometry">
            <mxPoint x="10" y="12" as="offset" />
          </mxGeometry>
        </mxCell>
        <mxCell id="WhZk6WtXUjjQEcHUHUVI-21" value="Set Mode?" style="rhombus;" parent="WIyWlLk6GJQsqaUBKTNV-1" vertex="1">
          <mxGeometry x="490" y="361.25" width="90" height="77.5" as="geometry" />
        </mxCell>
        <mxCell id="WhZk6WtXUjjQEcHUHUVI-27" style="edgeStyle=orthogonalEdgeStyle;rounded=0;orthogonalLoop=1;jettySize=auto;html=1;exitX=0;exitY=0.5;exitDx=0;exitDy=0;entryX=1;entryY=0.5;entryDx=0;entryDy=0;" parent="WIyWlLk6GJQsqaUBKTNV-1" source="WhZk6WtXUjjQEcHUHUVI-25" target="WhZk6WtXUjjQEcHUHUVI-26" edge="1">
          <mxGeometry relative="1" as="geometry" />
        </mxCell>
        <mxCell id="WhZk6WtXUjjQEcHUHUVI-25" value="SW3/4/5" style="rounded=1;whiteSpace=wrap;html=1;absoluteArcSize=1;arcSize=14;strokeWidth=2;" parent="WIyWlLk6GJQsqaUBKTNV-1" vertex="1">
          <mxGeometry x="680" y="540" width="100" height="100" as="geometry" />
        </mxCell>
        <mxCell id="WhZk6WtXUjjQEcHUHUVI-28" style="edgeStyle=orthogonalEdgeStyle;rounded=0;orthogonalLoop=1;jettySize=auto;html=1;exitX=0;exitY=0.5;exitDx=0;exitDy=0;entryX=1;entryY=0.5;entryDx=0;entryDy=0;" parent="WIyWlLk6GJQsqaUBKTNV-1" source="WhZk6WtXUjjQEcHUHUVI-26" target="WhZk6WtXUjjQEcHUHUVI-19" edge="1">
          <mxGeometry relative="1" as="geometry" />
        </mxCell>
        <mxCell id="WhZk6WtXUjjQEcHUHUVI-29" value="YES" style="edgeLabel;html=1;align=center;verticalAlign=middle;resizable=0;points=[];" parent="WhZk6WtXUjjQEcHUHUVI-28" vertex="1" connectable="0">
          <mxGeometry x="-0.7846" y="1" relative="1" as="geometry">
            <mxPoint x="-13" y="15" as="offset" />
          </mxGeometry>
        </mxCell>
        <mxCell id="WhZk6WtXUjjQEcHUHUVI-26" value="Set Mode?" style="rhombus;" parent="WIyWlLk6GJQsqaUBKTNV-1" vertex="1">
          <mxGeometry x="540" y="551.25" width="90" height="77.5" as="geometry" />
        </mxCell>
        <mxCell id="WhZk6WtXUjjQEcHUHUVI-30" value="Set Mode?" style="rhombus;" parent="WIyWlLk6GJQsqaUBKTNV-1" vertex="1">
          <mxGeometry x="105" y="450" width="90" height="77.5" as="geometry" />
        </mxCell>
        <mxCell id="WhZk6WtXUjjQEcHUHUVI-31" style="edgeStyle=orthogonalEdgeStyle;rounded=0;orthogonalLoop=1;jettySize=auto;html=1;exitX=0.5;exitY=1;exitDx=0;exitDy=0;entryX=0.491;entryY=-0.055;entryDx=0;entryDy=0;entryPerimeter=0;" parent="WIyWlLk6GJQsqaUBKTNV-1" source="WhZk6WtXUjjQEcHUHUVI-13" target="WhZk6WtXUjjQEcHUHUVI-30" edge="1">
          <mxGeometry relative="1" as="geometry" />
        </mxCell>
        <mxCell id="WhZk6WtXUjjQEcHUHUVI-32" style="edgeStyle=orthogonalEdgeStyle;rounded=0;orthogonalLoop=1;jettySize=auto;html=1;exitX=0.5;exitY=1;exitDx=0;exitDy=0;entryX=0.501;entryY=-0.029;entryDx=0;entryDy=0;entryPerimeter=0;" parent="WIyWlLk6GJQsqaUBKTNV-1" source="WhZk6WtXUjjQEcHUHUVI-30" target="WhZk6WtXUjjQEcHUHUVI-15" edge="1">
          <mxGeometry relative="1" as="geometry" />
        </mxCell>
        <mxCell id="WhZk6WtXUjjQEcHUHUVI-33" value="NO" style="edgeLabel;html=1;align=center;verticalAlign=middle;resizable=0;points=[];" parent="WhZk6WtXUjjQEcHUHUVI-32" vertex="1" connectable="0">
          <mxGeometry x="-0.7458" y="-2" relative="1" as="geometry">
            <mxPoint x="22" as="offset" />
          </mxGeometry>
        </mxCell>
        <mxCell id="WhZk6WtXUjjQEcHUHUVI-38" style="edgeStyle=orthogonalEdgeStyle;rounded=0;orthogonalLoop=1;jettySize=auto;html=1;exitX=1;exitY=0.5;exitDx=0;exitDy=0;entryX=0.5;entryY=1;entryDx=0;entryDy=0;" parent="WIyWlLk6GJQsqaUBKTNV-1" source="WhZk6WtXUjjQEcHUHUVI-34" target="WhZk6WtXUjjQEcHUHUVI-4" edge="1">
          <mxGeometry relative="1" as="geometry" />
        </mxCell>
        <mxCell id="WhZk6WtXUjjQEcHUHUVI-34" value="Exit Set Mode" style="rounded=1;whiteSpace=wrap;html=1;absoluteArcSize=1;arcSize=14;strokeWidth=2;" parent="WIyWlLk6GJQsqaUBKTNV-1" vertex="1">
          <mxGeometry x="230" y="440" width="100" height="100" as="geometry" />
        </mxCell>
        <mxCell id="WhZk6WtXUjjQEcHUHUVI-36" style="edgeStyle=orthogonalEdgeStyle;rounded=0;orthogonalLoop=1;jettySize=auto;html=1;exitX=1;exitY=0.5;exitDx=0;exitDy=0;entryX=-0.032;entryY=0.481;entryDx=0;entryDy=0;entryPerimeter=0;" parent="WIyWlLk6GJQsqaUBKTNV-1" source="WhZk6WtXUjjQEcHUHUVI-30" target="WhZk6WtXUjjQEcHUHUVI-34" edge="1">
          <mxGeometry relative="1" as="geometry" />
        </mxCell>
        <mxCell id="WhZk6WtXUjjQEcHUHUVI-37" value="YES" style="edgeLabel;html=1;align=center;verticalAlign=middle;resizable=0;points=[];" parent="WhZk6WtXUjjQEcHUHUVI-36" vertex="1" connectable="0">
          <mxGeometry x="-0.6542" y="-2" relative="1" as="geometry">
            <mxPoint x="9" y="-21" as="offset" />
          </mxGeometry>
        </mxCell>
      </root>
    </mxGraphModel>
  </diagram>
</mxfile>
